<?xml version="1.0" encoding="UTF-8"?>
<svg width="159px" height="42px" viewBox="0 0 159 42" version="1.1" xmlns="http://www.w3.org/2000/svg" xmlns:xlink="http://www.w3.org/1999/xlink">
    <title>Logo/Primary</title>
    <defs>
        <polygon id="path-1" points="0 41.9478399 158.358106 41.9478399 158.358106 0 0 0"></polygon>
    </defs>
    <g id="Logos" stroke="none" stroke-width="1" fill="none" fill-rule="evenodd">
        <g id="Artboard" transform="translate(-79.000000, -218.000000)">
            <g id="Group" transform="translate(76.000000, 218.000000)">
                <g id="Group-21" transform="translate(3.471801, 0.000000)">
                    <path d="M42.2570559,24.9779441 L42.2570559,35.6407671 L45.6241243,35.6407671 L45.6241243,30.5729699 L57.2676773,30.5729699 L57.2676773,27.2163582 L45.6241243,27.2163582 L45.6241243,25.9977911 C45.6241243,25.6989898 45.8668611,25.4567184 46.1665933,25.4567184 L57.2676773,25.4567184 L57.2676773,22.1003952 L45.1438585,22.1003952 C43.5494339,22.1003952 42.2570559,23.3887595 42.2570559,24.9779441" id="Fill-1" fill="#000000"></path>
                    <mask id="mask-2" fill="white">
                        <use xlink:href="#path-1"></use>
                    </mask>
                    <g id="Clip-4"></g>
                    <polygon id="Fill-3" fill="#000000" mask="url(#mask-2)" points="60.3948732 35.6409979 63.7619416 35.6409979 63.7619416 22.1003375 60.3948732 22.1003375"></polygon>
                    <polygon id="Fill-5" fill="#000000" mask="url(#mask-2)" points="66.4131536 25.4567473 72.0146153 25.4567473 72.0146153 35.640796 72.0397859 35.640796 75.3816837 35.640796 75.406565 35.640796 75.406565 25.4567473 80.8217067 25.4567473 80.8217067 22.1001356 66.4131536 22.1001356"></polygon>
                    <polygon id="Fill-6" fill="#000000" mask="url(#mask-2)" points="103.830172 7.52295764 109.245313 7.52295764 109.245313 4.16634595 94.8367602 4.16634595 94.8367602 7.52295764 100.438222 7.52295764 100.438222 17.7199852 100.463103 17.7199852 103.830172 17.7199852"></polygon>
                    <path d="M73.4787317,17.8672227 C73.9346949,17.8672227 74.3964444,17.7556048 74.8240546,17.5251586 C75.7521828,17.0241761 76.283947,16.0092323 76.283947,14.956794 L76.283947,4.16649016 L72.9168785,4.16649016 L72.9168785,13.5853652 L65.2482486,4.95762144 L65.1788125,4.88407479 C64.1774872,3.88557078 62.5645463,3.76155093 61.3876058,4.71938796 C60.7285422,5.25584592 60.39496,6.09600831 60.39496,6.94395799 L60.39496,17.7201294 L63.7617391,17.7201294 L63.7617391,8.34624756 L71.4998051,17.0478264 C72.0373556,17.5834191 72.7508107,17.8672227 73.4787317,17.8672227" id="Fill-7" fill="#000000" mask="url(#mask-2)"></path>
                    <path d="M95.9754241,31.553217 L88.3067942,22.9254733 L88.2373581,22.8519266 C87.3844523,22.0013812 86.0874453,21.7853559 84.9941173,22.3324853 C84.0315604,22.8138554 83.4532162,23.8267803 83.4532162,24.9005615 L83.4532162,35.640969 L86.8202847,35.640969 L86.8202847,26.3143878 L94.5583507,35.0156782 C95.0959012,35.5512709 95.8093563,35.8350745 96.5372773,35.8350745 C97.0233294,35.8350745 97.5160359,35.7084589 97.9667914,35.4457099 C98.8379241,34.9378053 99.3424926,33.9767957 99.3424926,32.9707928 L99.3424926,22.134342 L95.9754241,22.134342 L95.9754241,31.553217 Z" id="Fill-8" fill="#000000" mask="url(#mask-2)"></path>
                    <path d="M132.510489,27.198159 L124.590732,27.198159 C124.11741,27.198159 123.733776,26.8157164 123.733776,26.3438641 C123.733776,25.8596099 124.127825,25.4667842 124.613588,25.4667842 L136.073425,25.4667842 L136.073425,22.0997895 L124.631236,22.0997895 C122.295582,22.0997895 120.384356,24.0050805 120.384356,26.3337695 L120.384356,26.3542472 C120.384356,28.6771679 122.273305,30.5602507 124.603462,30.5602507 L132.524376,30.5602507 C133.010428,30.5602507 133.404188,30.9527879 133.404188,31.4373306 C133.404188,31.912067 133.01824,32.2971054 132.542024,32.2971054 L120.960096,32.2971054 L120.960096,35.6534287 L132.515697,35.6534287 C134.856269,35.6534287 136.753898,33.7616933 136.753898,31.4283896 L136.753898,31.4283896 C136.753898,29.1017195 134.844407,27.198159 132.510489,27.198159" id="Fill-9" fill="#000000" mask="url(#mask-2)"></path>
                    <path d="M142.517608,17.7200717 L154.716071,17.7200717 L154.716071,14.36346 L143.540343,14.36346 C143.2409,14.36346 142.997874,14.1214771 142.997874,13.8226758 L142.997874,12.6211253 L154.716071,12.6211253 L154.716071,9.26480203 L142.997874,9.26480203 L142.997874,8.0638284 C142.997874,7.76502709 143.2409,7.52304417 143.540632,7.52304417 L154.716071,7.52304417 L154.716071,4.16643248 L142.517608,4.16643248 C140.923184,4.16643248 139.630806,5.45479684 139.630806,7.04426986 L139.630806,14.8422343 C139.630806,16.4317073 140.923184,17.7200717 142.517608,17.7200717" id="Fill-10" fill="#000000" mask="url(#mask-2)"></path>
                    <path d="M157.185042,34.4553969 L156.862454,34.4553969 L156.862454,34.0449777 L157.185042,34.0449777 C157.346192,34.0449777 157.442245,34.1167939 157.442245,34.2500431 C157.442245,34.3766587 157.346192,34.4553969 157.185042,34.4553969 M157.695976,34.2364875 C157.695976,33.9766226 157.497215,33.8228957 157.195458,33.8228957 L156.615667,33.8228957 L156.615667,35.1187589 L156.862454,35.1187589 L156.862454,34.6708454 L157.133544,34.6708454 L157.449188,35.1187589 L157.744292,35.1187589 L157.394218,34.62989 C157.572727,34.5785515 157.695976,34.4484749 157.695976,34.2364875" id="Fill-11" fill="#000000" mask="url(#mask-2)"></path>
                    <path d="M157.113378,35.4961542 C156.553261,35.4961542 156.129991,35.056028 156.129991,34.5097638 C156.129991,33.9634996 156.556154,33.5173165 157.119454,33.5173165 C157.679861,33.5173165 158.102842,33.9574428 158.102842,34.503707 C158.102842,35.0499712 157.676678,35.4961542 157.113378,35.4961542 M157.120033,33.2689884 C156.423647,33.2689884 155.874813,33.8328461 155.874813,34.5100522 C155.874813,35.1872583 156.416704,35.7444823 157.113089,35.7444823 C157.809475,35.7444823 158.358019,35.1803362 158.358019,34.5034186 C158.358019,33.8262125 157.816129,33.2689884 157.120033,33.2689884" id="Fill-12" fill="#000000" mask="url(#mask-2)"></path>
                    <path d="M105.669503,31.7561481 L105.669503,30.5545977 L117.38741,30.5600776 L117.38741,27.1982744 L105.669503,27.1982744 L105.669503,25.9973008 C105.669503,25.6984995 105.912529,25.4562281 106.211972,25.4562281 L117.38741,25.4668996 L117.38741,22.0999048 L105.189237,22.0999048 C103.594812,22.0999048 102.302434,23.3882692 102.302434,24.9774538 L102.302434,32.7757067 C102.302434,34.3651797 103.594812,35.6535441 105.189237,35.6535441 L117.541327,35.6535441 L117.541327,32.2969324 L106.211972,32.2969324 C105.912529,32.2969324 105.669503,32.054661 105.669503,31.7561481" id="Fill-13" fill="#000000" mask="url(#mask-2)"></path>
                    <polygon id="Fill-14" fill="#000000" mask="url(#mask-2)" points="111.471722 17.7201294 114.83879 17.7201294 114.83879 4.16649016 111.471722 4.16649016"></polygon>
                    <path d="M135.390059,4.16501923 C134.687019,3.96168436 133.900656,4.06522651 133.274575,4.44305443 C132.49313,4.91519512 132.013732,5.74526287 131.567895,6.540432 C130.116682,9.12754378 128.665469,11.7146556 127.214256,14.3017673 C125.702576,11.6284185 124.191186,8.95478125 122.679795,6.28143241 C122.340137,5.68008034 121.986881,5.0634421 121.444702,4.63456415 C120.870986,4.18088223 120.104297,3.97697052 119.380427,4.08829997 C118.656556,4.19962942 117.986209,4.62533477 117.581744,5.23389729 C117.01179,6.09136478 116.996746,7.18793099 117.001086,8.21614209 C117.013237,11.2021363 117.025677,14.7341063 117.038118,17.7201005 L120.388117,17.7201005 C120.392167,14.8356295 120.396218,11.9433712 120.400268,9.05890024 C121.547988,11.1069583 122.695418,13.1547279 123.843138,15.2024976 C124.262936,15.9515198 124.702987,16.7239039 125.394165,17.2352694 C126.433969,18.0036157 127.978921,18.0056346 129.019593,17.2387305 C129.390786,16.9655984 129.689361,16.6169007 129.951482,16.236477 C130.178885,15.9065265 130.378803,15.5526373 130.574092,15.2036512 C131.721522,13.1553048 132.868952,11.1069583 134.016383,9.05861182 C134.020722,11.9445249 134.024773,14.8341874 134.029113,17.7201005 C135.14819,17.7195237 136.266978,17.720389 137.386055,17.7201005 C137.390105,14.4569364 137.393866,11.1888691 137.397677,7.9257049 C137.398496,7.10948123 137.392131,6.25951262 137.027591,5.52866075 C136.701821,4.8753934 136.092809,4.3683541 135.390059,4.16501923" id="Fill-15" fill="#000000" mask="url(#mask-2)"></path>
                    <polygon id="Fill-16" fill="#000000" mask="url(#mask-2)" points="83.8748086 17.7200717 87.241877 17.7200717 87.241877 11.6151224 93.858262 4.1667209 89.360833 4.1667209 85.5577642 8.44511734 81.7549847 4.1667209 77.2575557 4.1667209 83.8748086 11.6099309"></polygon>
                    <path d="M151.153019,27.198159 L143.233262,27.198159 C142.75994,27.198159 142.376306,26.8157164 142.376306,26.3438641 C142.376306,25.8596099 142.770356,25.4667842 143.256118,25.4667842 L154.715955,25.4667842 L154.715955,22.0997895 L143.274056,22.0997895 C140.938113,22.0997895 139.026886,24.0050805 139.026886,26.3337695 L139.026886,26.3542472 C139.026886,28.6771679 140.915835,30.5602507 143.245992,30.5602507 L151.166906,30.5602507 C151.652959,30.5602507 152.046719,30.9527879 152.046719,31.4373306 C152.046719,31.912067 151.66077,32.2971054 151.184555,32.2971054 L139.602916,32.2971054 L139.602916,35.6534287 L151.158227,35.6534287 C153.4988,35.6534287 155.396428,33.7616933 155.396428,31.4283896 L155.396428,31.4283896 C155.396428,29.1017195 153.486938,27.198159 151.153019,27.198159" id="Fill-17" fill="#000000" mask="url(#mask-2)"></path>
                    <path d="M55.6699544,17.7200717 L59.418053,17.7200717 L53.5521557,5.73658148 C53.04643,4.71269666 52.0011286,4.064044 50.8563022,4.064044 L50.8019106,4.064044 C49.6556376,4.064044 48.6094682,4.71413875 48.1046105,5.73975408 L42.2569402,17.7200717 L46.0027243,17.7200717 L47.375243,14.8298323 L52.3170625,14.8298323 L50.6534911,11.4775469 L49.0255057,11.4775469 L50.8293957,7.81376977 L55.6699544,17.7200717 Z" id="Fill-18" fill="#000000" mask="url(#mask-2)"></path>
                    <path d="M31.9063728,0.948146183 C30.7540242,-0.200912159 28.7528201,-0.370213676 27.6898704,0.798457107 C27.6898704,0.798457107 20.6724924,9.90987831 18.8350417,11.7251828 C16.1151749,14.4126642 13.227215,16.5564771 10.3574821,18.125184 C10.0134844,18.3132327 9.60525849,18.3184242 9.32606782,18.0421195 L5.10204316,13.8580358 C3.47000733,12.2310685 1.57758642,12.3617219 0.625444967,13.3103296 C-0.213573631,14.1470309 -0.36980468,15.6796856 1.17370022,17.218397 L7.33672579,23.3256536 C8.36958662,24.3553068 10.0068302,24.5148021 11.2170421,23.7285739 L11.3674869,23.6282044 C13.2040696,22.3011919 16.1663839,18.880263 18.1453105,16.3542959 C18.4861257,15.9193611 19.1003452,15.8215874 19.5438677,16.1325022 C25.3365679,20.1905471 27.5316141,21.8330891 28.3529844,22.4967395 C29.156417,23.1465459 29.4798732,23.5497546 29.4700364,23.8889345 C29.4497842,24.5704668 28.044862,25.6676099 26.5294209,26.7523509 C24.6633278,28.0888811 23.4629525,29.0198953 22.6323241,29.7755511 C21.4660883,30.8715405 21.0376102,31.4296298 20.772596,32.314497 C20.581647,32.9521898 20.7072104,33.6867911 20.8035529,33.9622305 C21.0885299,34.777589 21.733417,35.4870979 22.687873,36.0774901 L31.5314183,41.2055667 C34.160729,42.6248729 35.4791454,41.7694244 36.237734,40.6342101 C36.94656,39.5728309 37.2668337,37.5902438 34.8328118,36.1178686 L28.4744974,32.131063 C27.7792693,31.7168944 28.0500697,31.2508105 28.1947281,31.0941994 C28.5152911,30.7472322 29.878841,29.4793456 30.2141591,29.1517024 C32.351342,27.0624006 33.3844921,25.2156584 33.3726301,23.5062034 C33.3604788,21.7462752 32.2240426,20.441471 31.2354472,19.5015159 C30.2969037,18.6091498 29.4127517,17.7433182 28.0746617,16.4321688 C27.0120012,15.3912673 25.6689928,14.0755032 23.7979814,12.2567377 C23.553798,12.0187926 23.4215803,11.6992252 23.4354675,11.3799462 C23.4479081,11.0944121 23.5786793,10.8359893 23.8031891,10.6528437 C24.5400788,10.0514917 25.4875912,9.21132929 26.4041467,8.39885505 C27.3418223,7.56763363 28.2271316,6.78255913 28.8514772,6.28186504 C29.1645179,6.03065273 29.6199025,6.05113043 29.9097979,6.33176139 L34.1410554,10.4154755 C35.1623436,11.433592 36.4367839,11.863912 37.5506534,11.5665528 C37.8992801,11.4731053 38.2100063,11.3127447 38.4669196,11.099892 C38.8062882,10.8186842 39.0519181,10.4460479 39.1673555,10.0165931 C39.3151963,9.46686786 39.3690093,8.35097762 38.0702663,7.05626806 L31.9063728,0.948146183 Z" id="Fill-19" fill="#6244BB" mask="url(#mask-2)"></path>
                    <path d="M18.6876348,6.73537391 C18.6876348,9.2532653 16.6401401,11.2941129 14.1146941,11.2941129 C11.5889588,11.2941129 9.54146415,9.2532653 9.54146415,6.73537391 C9.54146415,4.21748251 11.5889588,2.17663491 14.1146941,2.17663491 C16.6401401,2.17663491 18.6876348,4.21748251 18.6876348,6.73537391" id="Fill-20" fill="#6244BB" mask="url(#mask-2)"></path>
                </g>
            </g>
        </g>
    </g>
</svg>