<svg width="388" height="105" viewBox="0 0 388 105" fill="none" xmlns="http://www.w3.org/2000/svg">
<g filter="url(#filter0_d_1021_172)">
<path d="M90.699 19.55V26.7243H91.6905V19.7972C96.2312 19.5221 99.8174 15.7567 99.8068 11.1434C99.7958 6.34415 95.8963 2.44465 91.0971 2.43362C86.2978 2.42258 82.4162 6.3042 82.4272 11.1034C82.4279 11.3772 82.6503 11.5997 82.9241 11.6003C83.1978 11.6009 83.4193 11.3795 83.4187 11.1057C83.4089 6.85402 86.8476 3.41527 91.0993 3.42504C95.351 3.43482 98.8056 6.88942 98.8154 11.1411C98.8252 15.3928 95.3864 18.8316 91.1347 18.8218C90.861 18.8212 90.6395 19.0426 90.6402 19.3164C90.6403 19.4008 90.6616 19.4804 90.699 19.55Z" fill="white"/>
<path fill-rule="evenodd" clip-rule="evenodd" d="M90.8789 26.2264C93.4351 26.0828 96.0607 26.657 98.4434 28.0327L169.678 69.1602C176.195 72.9227 178.428 81.2559 174.666 87.7728C170.903 94.2898 162.57 96.5226 156.053 92.7601L91.3079 55.3796L26.8686 92.5836C20.3216 96.3635 11.95 94.1203 8.17014 87.5734C4.39025 81.0264 6.63341 72.6548 13.1804 68.8749L83.8714 28.0615C86.0816 26.7854 88.4997 26.1958 90.8789 26.2264ZM102.225 32.5054L168.687 70.8774C174.255 74.0924 176.163 81.2128 172.948 86.7814C169.733 92.3499 162.613 94.2579 157.044 91.0429L93.2908 54.2348L97.5596 51.7701C104.107 47.9903 106.35 39.6187 102.57 33.0717C102.459 32.8792 102.344 32.6904 102.225 32.5054ZM89.3251 54.2348L25.8772 90.8664C20.2786 94.0988 13.1197 92.1805 9.88735 86.5819C6.655 80.9834 8.57321 73.8245 14.1718 70.5921L80.1446 32.5027C80.0368 32.672 79.9321 32.8444 79.8308 33.02C76.0682 39.5369 78.3011 47.8701 84.818 51.6326L89.3251 54.2348ZM91.3079 53.09L85.8094 49.9154C80.2409 46.7004 78.333 39.5799 81.548 34.0114C83.5754 30.4998 87.1558 28.444 90.9208 28.2105C94.8897 28.2839 98.7232 30.3749 100.853 34.0631C104.085 39.6617 102.167 46.8206 96.5682 50.0529L91.3079 53.09Z" fill="white"/>
<path d="M89.6402 19.3187C89.6405 19.4612 89.661 19.5998 89.699 19.7313V25.2597C87.5363 25.4082 85.3733 26.0396 83.3714 27.1954L12.6804 68.0089C5.65511 72.0649 3.24808 81.0481 7.30411 88.0734C11.3602 95.0986 20.3433 97.5057 27.3686 93.4496L91.3079 56.5343L155.553 93.6261C162.548 97.6648 171.493 95.268 175.532 88.2728C179.57 81.2776 177.174 72.3328 170.178 68.2941L98.9434 27.1667C96.9646 26.0242 94.8279 25.3964 92.6905 25.2426V20.6924C97.3031 19.958 100.818 15.9646 100.807 11.1411C100.795 5.79137 96.4491 1.44592 91.0994 1.43362C85.746 1.42131 81.4149 5.75241 81.4272 11.1057C81.4291 11.93 82.0975 12.5984 82.9218 12.6003C83.7496 12.6022 84.4206 11.9313 84.4187 11.1034C84.4102 7.4058 87.3994 4.41654 91.097 4.42504C94.7982 4.43355 97.8069 7.44221 97.8154 11.1434C97.8239 14.841 94.8346 17.8303 91.137 17.8218C90.3092 17.8199 89.6383 18.4908 89.6402 19.3187ZM98.0596 52.6362C104.294 49.037 106.891 41.558 104.563 35.0101L168.187 71.7434C173.277 74.6823 175.021 81.1911 172.082 86.2814C169.143 91.3716 162.635 93.1157 157.544 90.1768L95.2908 54.2348L98.0596 52.6362ZM84.318 52.4986L87.3251 54.2348L25.3772 90.0004C20.2569 92.9566 13.7096 91.2022 10.7534 86.0819C7.79717 80.9617 9.55151 74.4144 14.6718 71.4582L77.8252 34.9965C75.5371 41.5048 78.1261 48.9237 84.318 52.4986ZM91.3079 51.9353L86.3094 49.0494C81.2192 46.1105 79.4752 39.6016 82.414 34.5114C84.2596 31.3147 87.5127 29.4368 90.9426 29.2111C94.561 29.2917 98.0469 31.2035 99.9866 34.5631C102.943 39.6834 101.188 46.2307 96.0682 49.1869L91.3079 51.9353Z" stroke="white" stroke-width="2"/>
</g>
<circle cx="76.8432" cy="88.9867" r="6.35198" fill="url(#paint0_linear_1021_172)"/>
<circle cx="90.8187" cy="73.72" r="7.62237" fill="url(#paint1_linear_1021_172)"/>
<circle cx="107.969" cy="87.4518" r="9.52797" fill="url(#paint2_linear_1021_172)"/>
<path d="M167.304 44.6184V3.0918H175.509V37.3867H193.06V44.6184H167.304Z" fill="white"/>
<path d="M207.495 3.0918H217.536L228.745 44.6184H220.54L212.502 10.6016L204.491 44.6184H196.286L207.495 3.0918Z" fill="white"/>
<path d="M232.639 29.2928V3.0918H240.845V31.3511C240.845 33.4279 241.373 35.0596 242.43 36.2464C243.487 37.4146 244.952 37.9987 246.825 37.9987C248.697 37.9987 250.162 37.4146 251.219 36.2464C252.276 35.0596 252.805 33.4279 252.805 31.3511V3.0918H261.01V29.2928C261.01 34.9298 259.888 39.0278 257.644 41.5867C255.401 44.1456 251.794 45.4251 246.825 45.4251C241.874 45.4251 238.267 44.1456 236.005 41.5867C233.761 39.0278 232.639 34.9298 232.639 29.2928Z" fill="white"/>
<path d="M253.739 3.0918H262.556L274.127 33.2702V3.0918H281.358V44.6184H272.597L260.971 14.44V15.2765H253.739V3.0918Z" fill="white"/>
<path d="M296.767 10.4904V37.2199H298.993C302.219 37.2199 304.518 36.2093 305.891 34.1881C307.263 32.1484 307.949 28.6902 307.949 23.8134C307.949 18.9737 307.263 15.5433 305.891 13.5221C304.518 11.501 302.219 10.4904 298.993 10.4904H296.767ZM288.562 3.0918H297.352C304.138 3.0918 309.024 4.71429 312.01 7.95929C314.995 11.1857 316.488 16.4704 316.488 23.8134C316.488 31.1749 314.995 36.4874 312.01 39.751C309.024 42.9959 304.138 44.6184 297.352 44.6184H288.562V3.0918Z" fill="white"/>
<path d="M341.521 25.0094C342.336 25.1763 343.041 25.5657 343.634 26.1776C344.246 26.771 344.988 27.9392 345.86 29.6822L353.369 44.6184H344.358L339.351 34.1325C339.203 33.8358 339.008 33.4279 338.767 32.9087C337.302 29.7749 335.578 28.208 333.593 28.208H330.979V44.6184H322.774V3.0918H334.623C339.963 3.0918 343.792 4.03748 346.11 5.92885C348.446 7.82022 349.614 10.8983 349.614 15.1632C349.614 18.0188 348.919 20.2903 347.528 21.9777C346.138 23.6651 344.135 24.6756 341.521 25.0094ZM330.979 9.98973V21.3101H334.845C337.089 21.3101 338.693 20.8744 339.657 20.0029C340.64 19.1128 341.131 17.6572 341.131 15.636C341.131 13.6148 340.649 12.1685 339.685 11.297C338.721 10.4255 337.107 9.98973 334.845 9.98973H330.979Z" fill="white"/>
<path d="M353.62 3.0918H362.465L370.531 19.7803L378.625 3.0918H387.47L374.647 28.2637V44.6184H366.442V28.2637L353.62 3.0918Z" fill="white"/>
<path d="M322.773 72.0106V50.9531H326.934V68.3435H335.834V72.0106H322.773Z" fill="white"/>
<path d="M352.491 72.0106H339.374V50.9531H352.491V54.6202H343.535V59.1617H351.645V62.8288H343.535V68.3435H352.491V72.0106Z" fill="white"/>
<path d="M361.602 62.7724C359.505 61.9732 358.086 61.1363 357.343 60.2618C356.6 59.378 356.229 58.1932 356.229 56.7076C356.229 54.7988 356.84 53.2991 358.062 52.2084C359.284 51.1176 360.963 50.5723 363.097 50.5723C364.066 50.5723 365.034 50.6851 366.003 50.9108C366.971 51.127 367.93 51.4514 368.88 51.884V55.946C367.987 55.316 367.079 54.8364 366.158 54.5073C365.236 54.1782 364.324 54.0137 363.422 54.0137C362.416 54.0137 361.645 54.2158 361.109 54.6202C360.573 55.0245 360.305 55.6028 360.305 56.355C360.305 56.938 360.497 57.4222 360.883 57.8077C361.278 58.1838 362.096 58.6022 363.337 59.063L365.128 59.74C366.821 60.3606 368.067 61.1833 368.866 62.2082C369.665 63.2331 370.065 64.526 370.065 66.0869C370.065 68.2119 369.435 69.801 368.175 70.8541C366.924 71.8978 365.03 72.4197 362.491 72.4197C361.447 72.4197 360.399 72.2927 359.346 72.0388C358.302 71.7944 357.291 71.4277 356.313 70.9387V66.6369C357.423 67.4268 358.495 68.0144 359.529 68.4C360.573 68.7855 361.602 68.9782 362.618 68.9782C363.643 68.9782 364.437 68.7479 365.001 68.2871C365.566 67.817 365.848 67.1635 365.848 66.3266C365.848 65.6967 365.66 65.1466 365.283 64.6765C364.907 64.1969 364.362 63.8208 363.647 63.5481L361.602 62.7724Z" fill="white"/>
<path d="M379.007 62.7724C376.91 61.9732 375.49 61.1363 374.747 60.2618C374.005 59.378 373.633 58.1932 373.633 56.7076C373.633 54.7988 374.244 53.2991 375.467 52.2084C376.689 51.1176 378.367 50.5723 380.502 50.5723C381.47 50.5723 382.439 50.6851 383.407 50.9108C384.376 51.127 385.335 51.4514 386.285 51.884V55.946C385.391 55.316 384.484 54.8364 383.562 54.5073C382.641 54.1782 381.729 54.0137 380.826 54.0137C379.82 54.0137 379.049 54.2158 378.513 54.6202C377.977 55.0245 377.709 55.6028 377.709 56.355C377.709 56.938 377.902 57.4222 378.288 57.8077C378.682 58.1838 379.5 58.6022 380.742 59.063L382.533 59.74C384.225 60.3606 385.471 61.1833 386.27 62.2082C387.07 63.2331 387.469 64.526 387.469 66.0869C387.469 68.2119 386.839 69.801 385.579 70.8541C384.329 71.8978 382.434 72.4197 379.895 72.4197C378.852 72.4197 377.803 72.2927 376.75 72.0388C375.706 71.7944 374.696 71.4277 373.718 70.9387V66.6369C374.827 67.4268 375.899 68.0144 376.934 68.4C377.977 68.7855 379.007 68.9782 380.022 68.9782C381.047 68.9782 381.842 68.7479 382.406 68.2871C382.97 67.817 383.252 67.1635 383.252 66.3266C383.252 65.6967 383.064 65.1466 382.688 64.6765C382.312 64.1969 381.767 63.8208 381.052 63.5481L379.007 62.7724Z" fill="white"/>
<defs>
<filter id="filter0_d_1021_172" x="0.333984" y="0.433594" width="182.159" height="104.154" filterUnits="userSpaceOnUse" color-interpolation-filters="sRGB">
<feFlood flood-opacity="0" result="BackgroundImageFix"/>
<feColorMatrix in="SourceAlpha" type="matrix" values="0 0 0 0 0 0 0 0 0 0 0 0 0 0 0 0 0 0 127 0" result="hardAlpha"/>
<feOffset dy="4"/>
<feGaussianBlur stdDeviation="2"/>
<feComposite in2="hardAlpha" operator="out"/>
<feColorMatrix type="matrix" values="0 0 0 0 0 0 0 0 0 0 0 0 0 0 0 0 0 0 0.25 0"/>
<feBlend mode="normal" in2="BackgroundImageFix" result="effect1_dropShadow_1021_172"/>
<feBlend mode="normal" in="SourceGraphic" in2="effect1_dropShadow_1021_172" result="shape"/>
</filter>
<linearGradient id="paint0_linear_1021_172" x1="76.8432" y1="82.6348" x2="76.8432" y2="95.3387" gradientUnits="userSpaceOnUse">
<stop stop-color="#4AB6A9"/>
<stop offset="1" stop-color="#39638B"/>
</linearGradient>
<linearGradient id="paint1_linear_1021_172" x1="90.8187" y1="66.0977" x2="90.8187" y2="81.3424" gradientUnits="userSpaceOnUse">
<stop stop-color="#4AB6A9"/>
<stop offset="1" stop-color="#39638B"/>
</linearGradient>
<linearGradient id="paint2_linear_1021_172" x1="107.969" y1="77.9238" x2="107.969" y2="96.9798" gradientUnits="userSpaceOnUse">
<stop stop-color="#4AB6A9"/>
<stop offset="1" stop-color="#39638B"/>
</linearGradient>
</defs>
</svg>
