<?xml version="1.0" encoding="utf-8"?>
<!-- Generator: Adobe Illustrator 21.0.0, SVG Export Plug-In . SVG Version: 6.00 Build 0)  -->
<svg version="1.1" id="Layer_1" xmlns="http://www.w3.org/2000/svg" xmlns:xlink="http://www.w3.org/1999/xlink" x="0px" y="0px"
	 viewBox="0 0 262 90" style="enable-background:new 0 0 262 90;" xml:space="preserve">
<style type="text/css">
	.st0{fill:#00529F;}
	.st1{fill:#ED174C;}
	.st2{fill:#FFFFFF;}
	.st3{fill:none;}
</style>
<g>
	<polygon class="st0" points="0.6,43.2 0.6,68.8 26,68.8 25.1,50.1 	"/>
	<path class="st0" d="M83.4,65.8L63.9,22.1L53,39.4l19.4,23.9l-29.4-8l-8.7,13.6h47.6C82.8,68.1,83.3,67.2,83.4,65.8z"/>
	<g>
		<path class="st0" d="M0.6,39.7l23.2-8.9L22.2,0.9l18.7,23.4l20.5-7.9l-2.8-6.3c0,0-0.1,0.1-0.1,0.1c0,0,0,0,0,0
			c-1.7,2-3,3.4-5.7,8.1L51.3,17l3-16.1H0.5L0.6,39.7z"/>
		<path class="st0" d="M122.9,0.8c-0.2,0-68.5,0.3-68.6,0l0,0h0.1l4.1,9.3l0,0c0.3-0.4,0.7-0.8,1.1-1.3c0.9-1.2,5.3-3.8,7.1-3.7
			h16.7v59.7c0,1.9-0.5,3.2-1.5,4.1h13.3c-1.1-0.9-1.5-2.1-1.5-4.1V5.1h16.6c2.2,0.2,5.4,1.7,7.1,3.7c3.1,3.5,4.7,5.6,6.8,9.7
			l1.8-1.6L122.9,0.8z"/>
	</g>
	<path class="st1" d="M159.5,40.4c1.7-0.5,3.6-1,5.5-1.6c-4.8,1.3-8.9,2.6-12.1,3.7c-7.4,2.4-14.6,5.7-21,9c1.4-0.7,2.8-1.4,4.2-2.1
		c-3.1,8.6-5.6,15.7-5.6,16.6c0,1.3,0.6,2.2,1.5,2.8h35.8c0.6-0.6,1-1.4,1-2.5C168.9,64.9,164.3,52.7,159.5,40.4z"/>
	<path class="st1" d="M166.3,38.5c0.4-0.1,0.8-0.2,1.1-0.3C167.1,38.3,166.7,38.4,166.3,38.5z"/>
	<path class="st1" d="M231.9,38c2.1,0.5,4.1,1,6,1.5C236,39,234,38.5,231.9,38z"/>
	<path class="st1" d="M239.3,39.9c1.4,0.4,2.7,0.8,4,1.2C242,40.7,240.7,40.3,239.3,39.9z"/>
	<path class="st1" d="M237.9,39.5c0.5,0.1,0.9,0.3,1.4,0.4C238.9,39.8,238.4,39.6,237.9,39.5z"/>
	<path class="st1" d="M126.9,65l5-13.4C120,57.7,110.5,64.1,106,65.8c-3,1.2-5.8,2.2-8.2,3h25.3C124.3,68,125.6,66.8,126.9,65z"/>
	<path class="st1" d="M231.9,38c-5.1-1.2-10.9-2.2-17.1-2.9c-5.1,13.7-10.9,29.5-10.9,30.9c0,1.3,0.6,2.2,1.5,2.8h35.8
		c0.6-0.6,1-1.4,1-2.5C242.2,64.8,237,51,231.9,38z"/>
	<path class="st1" d="M200.2,65l11.3-30.2c1.1,0.1,2.2,0.2,3.2,0.3c-4.5-0.5-9.2-0.8-14.2-0.9c-12.3-0.3-23.8,1.7-33,4
		c0.4-0.1,0.8-0.2,1.2-0.3l9.2,23.1c1.5,3.8,2.7,6.3,5.1,7.8h13.9C198,68,199.1,66.8,200.2,65z"/>
	<path class="st1" d="M243.3,41.1l8,20c1.5,3.8,2.7,6.3,5.1,7.8h4.9V48.5C261.3,48.5,254.9,44.8,243.3,41.1z"/>
	<path class="st1" d="M165.1,38.9c0.4-0.1,0.8-0.2,1.1-0.3C165.8,38.7,165.4,38.8,165.1,38.9z"/>
	<polygon class="st2" points="231.9,38 231.9,38 231.9,38 	"/>
	<path class="st2" d="M237.9,39.5C237.9,39.5,237.9,39.5,237.9,39.5C237.9,39.5,237.9,39.5,237.9,39.5z"/>
	<polygon class="st2" points="243.3,41.1 243.3,41.1 243.3,41.1 	"/>
	<path class="st2" d="M239.3,39.9C239.3,39.9,239.3,39.9,239.3,39.9C239.3,39.9,239.3,39.9,239.3,39.9z"/>
	<polygon class="st2" points="214.7,35.1 214.7,35.1 214.7,35.1 	"/>
	<polygon class="st2" points="131.9,51.6 131.9,51.6 131.9,51.6 	"/>
	<path class="st2" d="M165,38.9C165.1,38.9,165.1,38.9,165,38.9C165.1,38.9,165.1,38.9,165,38.9z"/>
	<path class="st2" d="M167.4,38.2C167.5,38.2,167.5,38.2,167.4,38.2C167.5,38.2,167.5,38.2,167.4,38.2z"/>
	<path class="st2" d="M166.2,38.6C166.2,38.6,166.3,38.5,166.2,38.6C166.3,38.5,166.2,38.6,166.2,38.6z"/>
	<g>
		<path d="M5.8,88.6c0.5,0,1.1,0.1,1.5,0.2c0.1,0.2,0.1,0.7,0,0.9H2.8c0-0.2,0.1-0.6,0.2-0.8c0.3-0.1,0.9-0.2,1.3-0.2v-9H1.8
			c0,0.4-0.1,1.1-0.2,1.3C1.3,81,0.9,81,0.6,81v-2.4h8.9v2.5c-0.3,0-0.7,0-1-0.1c-0.1-0.3-0.2-1-0.2-1.4H5.8V88.6z"/>
		<path d="M10.6,89.6c0-0.2,0.1-0.6,0.2-0.8c0.3-0.1,0.9-0.2,1.2-0.2v-8.9c-0.4,0-0.9-0.1-1.2-0.1c0-0.2-0.1-0.7,0-0.9h7.5V81
			c-0.3,0-0.6,0-0.9-0.1c-0.1-0.3-0.2-0.9-0.2-1.3h-3.8v4h3c0-0.2,0.1-0.6,0.2-0.9c0.2-0.1,0.6-0.1,0.9-0.1v2.9
			c-0.3,0-0.7,0-0.9-0.1c-0.1-0.3-0.1-0.7-0.1-0.9h-3v4.1h3.8c0-0.4,0.1-1,0.2-1.4c0.2-0.1,0.7-0.1,1-0.1v2.5H10.6z"/>
		<path d="M26.9,80.6c0.2-0.3,0.4-0.7,0.7-1c-0.3,0-0.7-0.1-1-0.1c-0.1-0.3-0.1-0.6-0.1-0.9h3.3c0,0.2-0.1,0.7-0.1,0.9
			c-0.2,0-0.5,0.1-0.8,0.1L26,83.9l3.2,4.7c0.3,0,0.7,0.1,1,0.1c0.1,0.2,0.2,0.6,0.2,0.9h-4c0-0.3,0.1-0.6,0.3-0.9
			c0.3-0.1,0.7-0.1,1.1-0.1c-0.4-0.3-0.8-0.8-1-1.2l-1.8-2.7l-1.7,2.9c-0.2,0.3-0.5,0.7-0.7,1c0.4,0,0.9,0.1,1.2,0.1
			c0.1,0.2,0.2,0.7,0.2,0.9H20c0-0.2,0.1-0.6,0.2-0.8c0.2-0.1,0.6-0.1,0.9-0.2l3.2-4.7l-2.8-4.2c-0.3,0-0.7-0.1-0.9-0.2
			c-0.1-0.2-0.1-0.7-0.1-0.9h3.9c0,0.3-0.1,0.7-0.1,0.9c-0.3,0-0.8,0.1-1.2,0.1c0.3,0.3,0.7,0.8,0.9,1.1l1.6,2.3L26.9,80.6z"/>
		<path d="M38.7,89.6c0-0.3,0.1-0.6,0.2-0.8c0.3-0.1,0.8-0.2,1.2-0.2c-0.3-0.4-0.5-0.8-0.6-1.2L38.9,86h-4.2l-0.5,1.4
			c-0.1,0.4-0.4,0.8-0.6,1.2c0.4,0,0.9,0.1,1.3,0.1c0.1,0.2,0.1,0.6,0.1,0.8h-3.8c0-0.3,0.1-0.6,0.3-0.8c0.2-0.1,0.6-0.1,0.8-0.2
			l4.1-10.2h1l3.9,10.2c0.3,0,0.7,0.1,1,0.1c0.1,0.2,0.2,0.6,0.2,0.9H38.7z M36.8,80.2c-0.1,0.4-0.3,1.1-0.4,1.5L35,85.1h3.5
			l-1.3-3.5c-0.1-0.4-0.3-1.1-0.4-1.5H36.8z"/>
		<path d="M49.5,79.6c-0.4-0.2-1-0.3-1.5-0.3c-1.3,0-2.1,0.7-2.1,1.6c0,2.8,5.2,1.9,5.2,5.7c0,2.5-1.9,3.3-4,3.3
			c-1.1,0-2.3-0.2-3.2-0.6c0-0.8,0.1-1.9,0.2-2.7c0.3,0,0.9,0.1,1.2,0.2v1.6c0.6,0.3,1.3,0.5,2,0.5c1.5,0,2.2-0.7,2.2-2
			c0-2.9-5.3-1.8-5.3-5.8c0-1.7,1.3-2.8,3.5-2.8c0.9,0,2.1,0.2,2.9,0.5c0,0.7-0.1,1.7-0.2,2.3c-0.3,0-0.8-0.1-1.1-0.2V79.6z"/>
		<path d="M63.3,89.6c0-0.3,0.1-0.6,0.2-0.8c0.3-0.1,0.8-0.2,1.2-0.2c-0.3-0.4-0.5-0.8-0.6-1.2L63.6,86h-4.2l-0.5,1.4
			c-0.1,0.4-0.4,0.8-0.6,1.2c0.4,0,0.9,0.1,1.3,0.1c0.1,0.2,0.1,0.6,0.1,0.8H56c0-0.3,0.1-0.6,0.3-0.8c0.2-0.1,0.6-0.1,0.8-0.2
			l4.1-10.2h1l3.9,10.2c0.3,0,0.7,0.1,1,0.1c0.1,0.2,0.2,0.6,0.2,0.9H63.3z M61.4,80.2c-0.1,0.4-0.3,1.1-0.4,1.5l-1.3,3.4h3.5
			l-1.3-3.5c-0.1-0.4-0.3-1.1-0.4-1.5H61.4z"/>
		<path d="M69.8,79.7c-0.4,0-0.8,0-1.2,0c0-0.2-0.1-0.7,0-1c1.4-0.1,2.8-0.2,4-0.2c2.3,0,4.1,1.1,4.1,3.3c0,2.4-1.9,3.5-3.7,3.5
			c-0.6,0-1.2,0-1.8-0.1v3.5c0.6,0,1.2,0.1,1.7,0.2c0.1,0.2,0.1,0.7,0,0.9h-4.6c0-0.2,0.1-0.6,0.2-0.8c0.3-0.1,0.9-0.2,1.2-0.2V79.7
			z M71.3,84.2c0.5,0,1.1,0.1,1.7,0.1c1.4,0,2.3-0.7,2.3-2.4c0-1.6-1.2-2.4-2.8-2.4c-0.3,0-0.9,0-1.2,0.1V84.2z"/>
		<path d="M83.3,89.6c0-0.3,0.1-0.6,0.2-0.8c0.3-0.1,0.8-0.2,1.2-0.2c-0.3-0.4-0.5-0.8-0.6-1.2L83.6,86h-4.2l-0.5,1.4
			c-0.1,0.4-0.4,0.8-0.6,1.2c0.4,0,0.9,0.1,1.3,0.1c0.1,0.2,0.1,0.6,0.1,0.8H76c0-0.3,0.1-0.6,0.3-0.8c0.2-0.1,0.6-0.1,0.8-0.2
			l4.1-10.2h1l3.9,10.2c0.3,0,0.7,0.1,1,0.1c0.1,0.2,0.2,0.6,0.2,0.9H83.3z M81.4,80.2c-0.1,0.4-0.3,1.1-0.4,1.5l-1.3,3.4h3.5
			l-1.3-3.5c-0.1-0.4-0.3-1.1-0.4-1.5H81.4z"/>
		<path d="M89.5,79.6c-0.4,0-0.8,0-1.2,0c0-0.2-0.1-0.7,0-1c1.3-0.1,2.6-0.2,3.9-0.2c2.2,0,4.2,1,4.2,3.1c0,1.6-1.1,2.6-2.4,3
			c1,1.9,2.2,4,2.4,4.1l1-0.1c0,0.3-0.1,0.8-0.2,1c-0.5,0.1-1.2,0.2-1.7,0.3c-0.4-0.3-1.5-2.3-2.9-5.1c-0.5,0-1.1,0-1.6-0.1v3.9
			c0.4,0,1,0.1,1.3,0.1c0.1,0.2,0.1,0.7,0,0.9h-4.2c0-0.2,0.1-0.6,0.2-0.8c0.3-0.1,0.9-0.2,1.2-0.2V79.6z M90.9,83.8
			c0.6,0,1.1,0,1.6,0c1.3,0,2.3-0.7,2.3-2.2s-1.3-2.2-2.9-2.2c-0.3,0-0.7,0-1,0V83.8z"/>
		<path d="M102.8,88.6c0.5,0,1.1,0.1,1.5,0.2c0.1,0.2,0.1,0.7,0,0.9h-4.6c0-0.2,0.1-0.6,0.2-0.8c0.3-0.1,0.9-0.2,1.3-0.2v-9h-2.6
			c0,0.4-0.1,1.1-0.2,1.3c-0.2,0.1-0.7,0.1-1,0.1v-2.4h8.9v2.5c-0.3,0-0.7,0-1-0.1c-0.1-0.3-0.2-1-0.2-1.4h-2.5V88.6z"/>
		<path d="M111.1,82.9c-0.4-1.1-0.8-2.2-0.9-3.2h-0.1v8.9c0.4,0,0.8,0.1,1.1,0.2c0,0.2,0.1,0.6,0,0.8h-3.5c0-0.2,0.1-0.6,0.2-0.8
			c0.3-0.1,0.8-0.2,1.1-0.2v-9c-0.4,0-0.9-0.1-1.2-0.1c0-0.2-0.1-0.7,0-0.9h3.3l2.3,6.7c0.3,0.9,0.6,1.8,0.7,2.7h0.1
			c0.2-0.9,0.5-1.9,0.8-2.7l2.4-6.7h3.2c0,0.2,0,0.7,0,0.9c-0.3,0.1-0.9,0.1-1.3,0.1v8.9c0.5,0,1,0.1,1.4,0.2c0,0.2,0.1,0.4,0.1,0.6
			c0,0.1,0,0.1,0,0.3h-4.2c0-0.2,0.1-0.6,0.2-0.8c0.3-0.1,0.8-0.2,1.2-0.2v-8.9h-0.1c-0.1,0.9-0.5,2.2-0.9,3.3l-2.5,6.9h-0.9
			L111.1,82.9z"/>
		<path d="M122.5,89.6c0-0.2,0.1-0.6,0.2-0.8c0.3-0.1,0.9-0.2,1.2-0.2v-8.9c-0.4,0-0.9-0.1-1.2-0.1c0-0.2-0.1-0.7,0-0.9h7.5V81
			c-0.3,0-0.6,0-0.9-0.1c-0.1-0.3-0.2-0.9-0.2-1.3h-3.8v4h3c0-0.2,0.1-0.6,0.2-0.9c0.2-0.1,0.6-0.1,0.9-0.1v2.9
			c-0.3,0-0.7,0-0.9-0.1c-0.1-0.3-0.1-0.7-0.1-0.9h-3v4.1h3.8c0-0.4,0.1-1,0.2-1.4c0.2-0.1,0.7-0.1,1-0.1v2.5H122.5z"/>
		<path d="M139.3,86c0.3,0.5,0.8,1.8,0.9,2.3h0.1v-8.6c-0.4,0-0.9-0.1-1.2-0.1c0-0.2-0.1-0.7,0-0.9h3.5c0,0.1,0,0.2,0,0.3
			c0,0.2,0,0.4-0.1,0.6c-0.3,0.1-0.8,0.1-1.1,0.1v10.1h-1.8l-4.6-8.6c-0.2-0.3-0.4-0.8-0.6-1.2h-0.1v8.7c0.4,0,1,0.1,1.4,0.2
			c0.1,0.2,0.1,0.7,0,0.9h-4c0-0.2,0.1-0.6,0.2-0.8c0.3-0.1,0.9-0.2,1.2-0.2v-8.9c-0.4,0-0.9-0.1-1.2-0.1c0-0.2-0.1-0.7,0-0.9h3.3
			L139.3,86z"/>
		<path d="M149.1,88.6c0.5,0,1.1,0.1,1.5,0.2c0.1,0.2,0.1,0.7,0,0.9h-4.6c0-0.2,0.1-0.6,0.2-0.8c0.3-0.1,0.9-0.2,1.3-0.2v-9h-2.6
			c0,0.4-0.1,1.1-0.2,1.3c-0.2,0.1-0.7,0.1-1,0.1v-2.4h8.9v2.5c-0.3,0-0.7,0-1-0.1c-0.1-0.3-0.2-1-0.2-1.4h-2.5V88.6z"/>
		<path d="M164.5,89.6c0-0.3,0.1-0.6,0.2-0.8c0.3-0.1,0.8-0.2,1.2-0.2c-0.3-0.4-0.5-0.8-0.6-1.2l-0.5-1.3h-4.2l-0.5,1.4
			c-0.1,0.4-0.4,0.8-0.6,1.2c0.4,0,0.9,0.1,1.3,0.1c0.1,0.2,0.1,0.6,0.1,0.8h-3.8c0-0.3,0.1-0.6,0.3-0.8c0.2-0.1,0.6-0.1,0.8-0.2
			l4.1-10.2h1l3.9,10.2c0.3,0,0.7,0.1,1,0.1c0.1,0.2,0.2,0.6,0.2,0.9H164.5z M162.6,80.2c-0.1,0.4-0.3,1.1-0.4,1.5l-1.3,3.4h3.5
			l-1.3-3.5c-0.1-0.4-0.3-1.1-0.4-1.5H162.6z"/>
		<path d="M175.4,79.6c-0.4-0.2-1-0.3-1.5-0.3c-1.3,0-2.1,0.7-2.1,1.6c0,2.8,5.2,1.9,5.2,5.7c0,2.5-1.9,3.3-4,3.3
			c-1.1,0-2.3-0.2-3.2-0.6c0-0.8,0.1-1.9,0.2-2.7c0.3,0,0.9,0.1,1.2,0.2v1.6c0.6,0.3,1.3,0.5,2,0.5c1.5,0,2.2-0.7,2.2-2
			c0-2.9-5.3-1.8-5.3-5.8c0-1.7,1.3-2.8,3.5-2.8c0.9,0,2.1,0.2,2.9,0.5c0,0.7-0.1,1.7-0.2,2.3c-0.3,0-0.8-0.1-1.1-0.2V79.6z"/>
		<path d="M184.3,79.6c-0.4-0.2-1-0.3-1.5-0.3c-1.3,0-2.1,0.7-2.1,1.6c0,2.8,5.2,1.9,5.2,5.7c0,2.5-1.9,3.3-4,3.3
			c-1.1,0-2.3-0.2-3.2-0.6c0-0.8,0.1-1.9,0.2-2.7c0.3,0,0.9,0.1,1.2,0.2v1.6c0.6,0.3,1.3,0.5,2,0.5c1.5,0,2.2-0.7,2.2-2
			c0-2.9-5.3-1.8-5.3-5.8c0-1.7,1.3-2.8,3.5-2.8c0.9,0,2.1,0.2,2.9,0.5c0,0.7-0.1,1.7-0.2,2.3c-0.3,0-0.8-0.1-1.1-0.2V79.6z"/>
		<path d="M197.7,84c0,3.8-2,6-5,6c-3.2,0-5-2.1-5-6c0-3.5,2.2-5.7,5-5.7C195.7,78.3,197.7,80.3,197.7,84z M192.8,88.9
			c2.3,0,3.4-1.9,3.4-4.9c0-2.7-1.3-4.6-3.4-4.6c-2.3,0-3.5,1.8-3.5,4.6C189.3,86.9,190.6,88.9,192.8,88.9z"/>
		<path d="M206,79.7c-0.6-0.3-1.1-0.3-1.7-0.3c-2.1,0-3.8,1.6-3.8,4.6c0,3.2,1.5,4.8,3.8,4.8c0.9,0,2.2-0.3,3-0.6
			c0,0.3-0.1,0.8-0.2,1c-0.8,0.4-2.2,0.8-3.4,0.8c-2.8,0-4.8-2.4-4.8-5.6c0-3.8,2.5-6,5.5-6c1.2,0,2.1,0.2,2.9,0.6
			c0,0.9-0.1,2-0.2,2.6c-0.3,0-0.8-0.1-1.1-0.3V79.7z"/>
		<path d="M209.2,89.6c0-0.2,0.1-0.6,0.2-0.8c0.3-0.1,0.9-0.2,1.2-0.2v-8.9c-0.4,0-0.9-0.1-1.2-0.1c0-0.2-0.1-0.7,0-0.9h4
			c0,0.2,0,0.7,0,0.9c-0.4,0.1-0.9,0.1-1.3,0.1v8.9c0.5,0,1,0.1,1.4,0.2c0,0.2,0.1,0.4,0.1,0.6c0,0.1,0,0.1,0,0.3H209.2z"/>
		<path d="M221.5,89.6c0-0.3,0.1-0.6,0.2-0.8c0.3-0.1,0.8-0.2,1.2-0.2c-0.3-0.4-0.5-0.8-0.6-1.2l-0.5-1.3h-4.2l-0.5,1.4
			c-0.1,0.4-0.4,0.8-0.6,1.2c0.4,0,0.9,0.1,1.3,0.1c0.1,0.2,0.1,0.6,0.1,0.8h-3.8c0-0.3,0.1-0.6,0.3-0.8c0.2-0.1,0.6-0.1,0.8-0.2
			l4.1-10.2h1l3.9,10.2c0.3,0,0.7,0.1,1,0.1c0.1,0.2,0.2,0.6,0.2,0.9H221.5z M219.6,80.2c-0.1,0.4-0.3,1.1-0.4,1.5l-1.3,3.4h3.5
			l-1.3-3.5c-0.1-0.4-0.3-1.1-0.4-1.5H219.6z"/>
		<path d="M229.6,88.6c0.5,0,1.1,0.1,1.5,0.2c0.1,0.2,0.1,0.7,0,0.9h-4.6c0-0.2,0.1-0.6,0.2-0.8c0.3-0.1,1-0.2,1.3-0.2v-9h-2.6
			c0,0.4-0.1,1.1-0.2,1.3c-0.2,0.1-0.7,0.1-1,0.1v-2.4h8.9v2.5c-0.3,0-0.7,0-1-0.1c-0.1-0.3-0.2-1-0.2-1.4h-2.5V88.6z"/>
		<path d="M234.4,89.6c0-0.2,0.1-0.6,0.2-0.8c0.3-0.1,0.9-0.2,1.2-0.2v-8.9c-0.4,0-0.9-0.1-1.2-0.1c0-0.2-0.1-0.7,0-0.9h4
			c0,0.2,0,0.7,0,0.9c-0.4,0.1-0.9,0.1-1.3,0.1v8.9c0.5,0,1,0.1,1.4,0.2c0,0.2,0.1,0.4,0.1,0.6c0,0.1,0,0.1,0,0.3H234.4z"/>
		<path d="M249.6,84c0,3.8-2,6-5,6c-3.2,0-5-2.1-5-6c0-3.5,2.2-5.7,5-5.7C247.7,78.3,249.6,80.3,249.6,84z M244.7,88.9
			c2.3,0,3.4-1.9,3.4-4.9c0-2.7-1.3-4.6-3.4-4.6c-2.3,0-3.5,1.8-3.5,4.6C241.2,86.9,242.5,88.9,244.7,88.9z"/>
		<path d="M258.1,86c0.3,0.5,0.8,1.8,0.9,2.3h0.1v-8.6c-0.4,0-0.9-0.1-1.2-0.1c0-0.2-0.1-0.7,0-0.9h3.5c0,0.1,0,0.2,0,0.3
			c0,0.2,0,0.4-0.1,0.6c-0.3,0.1-0.8,0.1-1.1,0.1v10.1h-1.8l-4.6-8.6c-0.2-0.3-0.4-0.8-0.6-1.2h-0.1v8.7c0.4,0,1,0.1,1.4,0.2
			c0.1,0.2,0.1,0.7,0,0.9h-4c0-0.2,0.1-0.6,0.2-0.8c0.3-0.1,0.9-0.2,1.2-0.2v-8.9c-0.4,0-0.9-0.1-1.2-0.1c0-0.2-0.1-0.7,0-0.9h3.3
			L258.1,86z"/>
	</g>
	<path class="st3" d="M136.1,49.4c5.3-2.6,10.9-5,16.8-6.9c1.9-0.6,4.1-1.3,6.6-2.1c-5.1-13-10.3-26.1-10.3-26.1
		S141.6,34.3,136.1,49.4z"/>
	<path class="st3" d="M214.7,35.1c6.3,0.7,12,1.7,17.1,2.9c-4.7-12.2-9.3-23.6-9.3-23.6S218.9,24.1,214.7,35.1z"/>
	<path class="st3" d="M136.1,49.4c5.3-2.6,10.9-5,16.8-6.9c1.9-0.6,4.1-1.3,6.6-2.1c-5.1-13-10.3-26.1-10.3-26.1
		S141.6,34.3,136.1,49.4z"/>
	<path class="st3" d="M136.1,49.4c5.3-2.6,10.9-5,16.8-6.9c1.9-0.6,4.1-1.3,6.6-2.1c-5.1-13-10.3-26.1-10.3-26.1
		S141.6,34.3,136.1,49.4z"/>
	<path class="st3" d="M214.7,35.1c6.3,0.7,12,1.7,17.1,2.9c-4.7-12.2-9.3-23.6-9.3-23.6S218.9,24.1,214.7,35.1z"/>
	<path class="st0" d="M149.2,14.4c0,0,5.2,13,10.3,26.1c2.8-0.8,5.8-1.7,9.2-2.5l-15.1-38c-2,3.8-4.7,6.3-8.9,8.1l2.5,2.9
		l-15.3,40.6c1.4-0.7,2.8-1.4,4.2-2.1C141.6,34.3,149.2,14.4,149.2,14.4z"/>
	<path class="st0" d="M222.6,14.4c0,0,4.6,11.5,9.3,23.6c4.2,1,8,2,11.4,3.1L226.9-0.1c-2.1,3.8-4.7,6.3-8.9,8.1l2.5,2.9l-9,23.9
		c1.1,0.1,2.2,0.2,3.2,0.3C218.9,24.1,222.6,14.4,222.6,14.4z"/>
</g>
</svg>
