<?xml version="1.0" encoding="UTF-8"?> <svg xmlns="http://www.w3.org/2000/svg" id="Layer_1" data-name="Layer 1" viewBox="0 0 1447.06 307.46"><defs><style> .cls-1 { fill: #082869; } .cls-2 { fill: #0f8073; } </style></defs><path class="cls-1" d="M228.4,12.79v182.19h-27.89l-104.98-123.31-1.15-58.77,100.49,123.31V12.91h33.53v-.12Z"></path><path class="cls-1" d="M394.69,134.02h-109.02c1.84,10.26,6.91,18.32,14.98,24.32,8.07,5.99,18.09,8.99,30.08,8.99,15.21,0,27.89-5.07,37.68-15.1l17.4,20.05c-6.22,7.49-14.17,13.14-23.62,16.94-9.56,3.8-20.28,5.76-32.27,5.76-15.21,0-28.69-3-40.33-9.1-11.64-6.11-20.63-14.52-26.97-25.35-6.34-10.83-9.45-23.16-9.45-36.76s3.11-25.7,9.22-36.53c6.11-10.83,14.75-19.24,25.58-25.35,10.95-6.11,23.28-9.1,36.99-9.1s25.58,3,36.3,8.99c10.72,5.99,19.01,14.4,25.01,25.24,5.99,10.83,8.99,23.39,8.99,37.57-.12,2.07-.23,5.3-.58,9.45h0ZM298.47,87.81c-7.14,6.11-11.64,14.4-13.14,24.55h78.82c-1.38-10.03-5.65-18.21-12.79-24.43-7.14-6.22-16.02-9.33-26.51-9.33s-19.13,3.11-26.39,9.22h0Z"></path><path class="cls-1" d="M511.66,185.54c-3.8,3.11-8.41,5.42-13.94,7.03-5.42,1.61-11.29,2.3-17.29,2.3-15.21,0-27.08-4.03-35.38-11.98-8.3-7.95-12.45-19.59-12.45-34.92v-66.84h-22.93v-25.93h22.93v-31.81h32.5v31.69h37.22v26.04h-37.22v66.03c0,6.8,1.61,11.87,4.96,15.44,3.34,3.57,8.07,5.3,14.29,5.3,7.26,0,13.37-1.96,18.21-5.76l9.1,23.39h0Z"></path><path class="cls-2" d="M698.46,12.79l-79.4,182.19h-33.3L506.13,12.79h36.65l60.73,140.48,61.19-140.48h33.77Z"></path><path class="cls-2" d="M836.06,134.02h-109.02c1.96,10.26,6.91,18.32,14.98,24.32,8.07,5.99,18.09,8.99,30.08,8.99,15.21,0,27.89-5.07,37.68-15.1l17.4,20.05c-6.22,7.49-14.17,13.14-23.62,16.94-9.56,3.8-20.28,5.76-32.27,5.76-15.21,0-28.69-3-40.33-9.1-11.64-6.11-20.63-14.52-26.97-25.35-6.34-10.83-9.45-23.16-9.45-36.76s3.11-25.7,9.22-36.53c6.11-10.83,14.75-19.24,25.58-25.35,10.83-6.11,23.28-9.1,36.99-9.1s25.58,3,36.3,8.99c10.72,5.99,19.01,14.4,25.01,25.24,5.99,10.83,8.99,23.39,8.99,37.57,0,2.07-.23,5.3-.58,9.45h0ZM739.95,87.81c-7.14,6.11-11.52,14.4-13.14,24.55h78.82c-1.38-10.03-5.65-18.21-12.79-24.43-7.14-6.22-15.9-9.33-26.51-9.33s-19.13,3.11-26.39,9.22h0Z"></path><path class="cls-2" d="M979.19,69.72c10.6,10.26,15.9,25.35,15.9,45.52v79.63h-32.5v-75.48c0-12.1-2.88-21.32-8.64-27.43-5.76-6.11-13.83-9.22-24.43-9.22-11.98,0-21.43,3.57-28.35,10.83-6.91,7.14-10.37,17.52-10.37,31.11v70.3h-32.5V55.89h31v17.98c5.42-6.45,12.1-11.29,20.28-14.52,8.18-3.34,17.29-4.96,27.54-4.96,17.4,0,31.46,5.07,42.06,15.33h0Z"></path><path class="cls-2" d="M1164.03,0v193.03h-31.23v-17.86c-5.42,6.57-11.98,11.52-19.94,14.87-7.84,3.34-16.59,4.96-26.16,4.96-13.37,0-25.35-3-36.07-8.87-10.72-5.88-19.01-14.29-25.12-25.12-6.11-10.83-9.1-23.28-9.1-37.34s3-26.51,9.1-37.22c6.11-10.72,14.4-19.13,25.12-25.01,10.72-5.88,22.7-8.87,36.07-8.87,9.22,0,17.63,1.5,25.24,4.72,7.61,3.11,14.17,7.84,19.48,14.06V0h32.61ZM1111.83,161.68c6.22-3.57,11.18-8.64,14.87-15.21,3.69-6.57,5.42-14.17,5.42-22.93s-1.84-16.36-5.42-22.93c-3.57-6.57-8.64-11.64-14.87-15.21-6.22-3.57-13.25-5.3-21.09-5.3s-14.87,1.84-21.09,5.3c-6.22,3.57-11.18,8.64-14.87,15.21-3.69,6.57-5.42,14.17-5.42,22.93s1.84,16.36,5.42,22.93c3.69,6.57,8.64,11.64,14.87,15.21,6.22,3.57,13.25,5.3,21.09,5.3s14.75-1.73,21.09-5.3Z"></path><path class="cls-2" d="M1221.54,185.77c-11.29-6.11-20.05-14.52-26.39-25.35-6.34-10.83-9.45-23.16-9.45-36.76s3.23-25.93,9.45-36.65c6.34-10.72,15.1-19.13,26.39-25.24,11.29-6.11,23.97-9.1,38.03-9.1s26.97,3,38.26,9.1c11.29,6.11,20.05,14.52,26.39,25.24,6.34,10.72,9.45,22.93,9.45,36.65s-3.23,25.93-9.45,36.76c-6.34,10.83-15.1,19.36-26.39,25.35-11.29,6.11-23.97,9.1-38.26,9.1s-26.74-3-38.03-9.1ZM1289.18,155.11c7.84-7.95,11.75-18.44,11.75-31.46s-3.92-23.51-11.75-31.46c-7.84-7.95-17.63-11.98-29.62-11.98s-21.78,4.03-29.5,11.98c-7.72,7.95-11.64,18.44-11.64,31.46s3.8,23.51,11.64,31.46c7.72,7.95,17.52,11.98,29.5,11.98s21.78-4.03,29.62-11.98Z"></path><path class="cls-2" d="M1447.06,54.39v31c-2.77-.46-5.3-.81-7.61-.81-12.68,0-22.59,3.69-29.62,11.06-7.03,7.38-10.72,17.98-10.72,31.92v67.41h-32.38V55.89h31v20.28c9.33-14.52,25.81-21.78,49.32-21.78h0Z"></path><path id="f" class="cls-2" d="M62.92,34.92L30.08,119.5l43.33-25.81,14.52-81.01-25.01,22.24Z"></path><path id="g" class="cls-2" d="M71.79,103.72l-12.79,91.04H0l27.77-65.11,44.02-25.93h0Z"></path><path id="h" class="cls-1" d="M94.04,11.52l-11.29,82.17,34,15.79-3.11-72.6-19.59-25.35Z"></path><path id="i" class="cls-1" d="M81.24,101.06l-13.71,93.69h49.32v-77.33l-35.61-16.36h0Z"></path><path class="cls-1" d="M765.95,287.45c-4.34,0-8.33-.71-11.98-2.13-3.64-1.42-6.82-3.44-9.52-6.07-2.71-2.62-4.81-5.68-6.31-9.16-1.5-3.48-2.25-7.34-2.25-11.57s.75-8.09,2.25-11.57c1.5-3.48,3.62-6.54,6.35-9.16,2.73-2.62,5.92-4.65,9.56-6.07,3.64-1.42,7.64-2.13,11.98-2.13,4.61,0,8.81.79,12.62,2.37,3.8,1.58,7.02,3.93,9.65,7.03l-6.75,6.35c-2.09-2.2-4.39-3.84-6.91-4.94-2.52-1.1-5.22-1.65-8.12-1.65s-5.64.48-8.08,1.45c-2.44.96-4.56,2.33-6.35,4.1-1.8,1.77-3.2,3.86-4.22,6.27-1.02,2.41-1.53,5.06-1.53,7.96s.51,5.55,1.53,7.96c1.02,2.41,2.42,4.5,4.22,6.27,1.79,1.77,3.91,3.13,6.35,4.1,2.44.96,5.13,1.45,8.08,1.45s5.6-.55,8.12-1.65c2.52-1.1,4.82-2.77,6.91-5.02l6.75,6.35c-2.63,3.11-5.84,5.47-9.65,7.07-3.81,1.61-8.04,2.41-12.7,2.41Z"></path><path class="cls-1" d="M835.96,287.45c-4.34,0-8.37-.72-12.1-2.17-3.72-1.45-6.95-3.48-9.69-6.11-2.73-2.62-4.85-5.69-6.35-9.2-1.5-3.51-2.25-7.33-2.25-11.45s.75-8.02,2.25-11.53c1.5-3.51,3.62-6.56,6.35-9.16,2.73-2.6,5.95-4.62,9.65-6.07s7.74-2.17,12.14-2.17,8.36.71,12.06,2.13c3.7,1.42,6.9,3.43,9.6,6.03,2.71,2.6,4.81,5.67,6.31,9.2,1.5,3.54,2.25,7.4,2.25,11.57s-.75,8.03-2.25,11.53c-1.5,3.51-3.6,6.58-6.31,9.2-2.71,2.63-5.91,4.65-9.6,6.07-3.7,1.42-7.72,2.13-12.06,2.13ZM835.96,278.29c2.84,0,5.45-.48,7.84-1.45,2.38-.96,4.46-2.33,6.23-4.1,1.77-1.77,3.15-3.86,4.14-6.27.99-2.41,1.49-5.06,1.49-7.96s-.48-5.55-1.45-7.96c-.96-2.41-2.34-4.5-4.14-6.27-1.8-1.77-3.89-3.13-6.27-4.1-2.38-.96-5-1.45-7.84-1.45s-5.48.48-7.92,1.45c-2.44.96-4.54,2.34-6.31,4.14-1.77,1.8-3.16,3.89-4.18,6.27-1.02,2.39-1.53,5.02-1.53,7.92s.51,5.47,1.53,7.88c1.02,2.41,2.41,4.51,4.18,6.31,1.77,1.8,3.87,3.17,6.31,4.14,2.44.96,5.08,1.45,7.92,1.45Z"></path><path class="cls-1" d="M888.52,286.64v-56.26h8.6l24.6,41.07h-4.5l24.19-41.07h8.6l.16,56.26h-10.05v-40.75h2.01l-20.42,34.4h-4.74l-20.9-34.4h2.41v40.75h-9.97Z"></path><path class="cls-1" d="M976.53,286.64v-56.26h23.15c4.98,0,9.26.79,12.82,2.37,3.56,1.58,6.31,3.87,8.24,6.87,1.93,3,2.89,6.59,2.89,10.77s-.96,7.68-2.89,10.65c-1.93,2.97-4.68,5.28-8.24,6.91-3.56,1.63-7.84,2.45-12.82,2.45h-17.28l4.58-4.82v21.06h-10.45ZM986.98,266.71l-4.58-5.14h16.8c4.61,0,8.08-.98,10.41-2.93,2.33-1.96,3.5-4.7,3.5-8.24s-1.17-6.28-3.5-8.24c-2.33-1.96-5.8-2.93-10.41-2.93h-16.8l4.58-5.14v32.63Z"></path><path class="cls-1" d="M1046.14,286.64v-56.26h10.45v47.42h29.42v8.84h-39.87Z"></path><path class="cls-1" d="M1105.54,286.64v-56.26h10.45v56.26h-10.45Z"></path><path class="cls-1" d="M1134.47,286.64l25.32-56.26h10.29l25.4,56.26h-11.01l-21.7-50.72h4.18l-21.78,50.72h-10.69ZM1146.13,273.62l2.89-8.2h30.3l2.81,8.2h-36.01Z"></path><path class="cls-1" d="M1213.89,286.64v-56.26h8.6l35.29,43.4h-4.26v-43.4h10.29v56.26h-8.6l-35.21-43.4h4.26v43.4h-10.37Z"></path><path class="cls-1" d="M1316.29,287.45c-4.34,0-8.33-.71-11.98-2.13-3.64-1.42-6.82-3.44-9.52-6.07-2.71-2.62-4.81-5.68-6.31-9.16-1.5-3.48-2.25-7.34-2.25-11.57s.75-8.09,2.25-11.57c1.5-3.48,3.62-6.54,6.35-9.16,2.73-2.62,5.92-4.65,9.56-6.07,3.64-1.42,7.64-2.13,11.98-2.13,4.61,0,8.81.79,12.62,2.37,3.8,1.58,7.02,3.93,9.65,7.03l-6.75,6.35c-2.09-2.2-4.39-3.84-6.91-4.94-2.52-1.1-5.22-1.65-8.12-1.65s-5.64.48-8.08,1.45c-2.44.96-4.56,2.33-6.35,4.1-1.8,1.77-3.2,3.86-4.22,6.27-1.02,2.41-1.53,5.06-1.53,7.96s.51,5.55,1.53,7.96c1.02,2.41,2.42,4.5,4.22,6.27,1.79,1.77,3.91,3.13,6.35,4.1,2.44.96,5.13,1.45,8.08,1.45s5.6-.55,8.12-1.65c2.52-1.1,4.82-2.77,6.91-5.02l6.75,6.35c-2.63,3.11-5.84,5.47-9.65,7.07-3.81,1.61-8.04,2.41-12.7,2.41Z"></path><path class="cls-1" d="M1370.38,277.8h31.75v8.84h-42.2v-56.26h41.07v8.84h-30.62v38.58ZM1369.58,253.77h27.97v8.6h-27.97v-8.6Z"></path></svg> 